<svg width="236" height="85" viewBox="0 0 236 85" fill="none" xmlns="http://www.w3.org/2000/svg">
<path fill-rule="evenodd" clip-rule="evenodd" d="M30.7641 13.4438H13.4829V14.0289L52.123 71.8796L69.3876 71.9497V71.2867L30.7641 13.4438ZM14.0748 41.413H13.4829V71.9497H34.3344V71.3179L14.0748 41.413Z" fill="black"/>
<path d="M70.1992 45.4581H69.5468L47.7197 13.2918V12.6018H70.1992V45.4581Z" fill="#CF002E"/>
<path d="M103.068 26.0021L91.7369 12.917H89.2957V34.5372H94.116V21.8601H94.3668L105.729 34.5372H108.108V12.917H103.319V26.0021H103.068Z" fill="black"/>
<path d="M126.237 35.0079C132.905 35.0079 137.851 30.2697 137.851 23.6487C137.851 17.0904 132.936 12.4463 126.237 12.4463C119.508 12.4463 114.594 17.0904 114.594 23.6487C114.594 30.2697 119.508 35.0079 126.237 35.0079ZM126.237 30.5521C122.481 30.5521 119.758 27.571 119.758 23.6487C119.758 19.8204 122.45 16.9021 126.237 16.9021C129.994 16.9021 132.686 19.8204 132.686 23.6487C132.686 27.571 129.962 30.5521 126.237 30.5521Z" fill="black"/>
<path d="M144.312 12.917V34.5372H149.007V22.8956H149.289L155.55 31.2738H155.957L162.248 22.8956H162.53V34.5372H167.225V12.917H164.784L155.894 24.998H155.644L146.754 12.917H144.312Z" fill="black"/>
<path d="M189.482 34.5372H194.617L184.725 12.9484H182.409L172.517 34.5372H177.62L178.84 31.7131H188.262L189.482 34.5372ZM180.374 28.1673L183.442 21.0128H183.692L186.759 28.1673H180.374Z" fill="black"/>
<path d="M199.91 34.5372H207.923C214.559 34.5372 219.286 29.9873 219.286 23.7428C219.286 17.467 214.559 12.917 207.923 12.917H199.91V34.5372ZM204.824 29.9245V17.5297H207.985C211.679 17.5297 214.121 20.1656 214.121 23.7428C214.121 27.3828 211.585 29.9245 207.985 29.9245H204.824Z" fill="black"/>
<path d="M95.3517 72.5497C98.4819 72.5497 100.485 72.0475 102.144 71.1692V66.6818H101.831C100.423 67.529 98.6069 68.0938 96.2286 68.0938C91.6894 68.0938 88.9352 65.1128 88.9352 61.2532C88.9352 57.3935 91.6894 54.4439 96.2286 54.4439C98.5448 54.4439 100.423 55.0087 101.831 55.8246H102.144V51.3373C100.485 50.4901 98.4819 49.988 95.3517 49.988C88.5904 49.988 83.77 54.6949 83.77 61.2532C83.77 67.8114 88.5904 72.5497 95.3517 72.5497Z" fill="black"/>
<path d="M123.311 72.0786H128.444L118.553 50.49H116.236L106.345 72.0786H111.447L112.668 69.2547H122.09L123.311 72.0786ZM114.202 65.7089L117.27 58.5544H117.52L120.588 65.7089H114.202Z" fill="black"/>
<path d="M142.063 50.4586H133.737V72.0786H138.589V65.3323H141.876C147.135 65.3323 150.453 63.1986 150.453 57.77C150.453 53.2827 147.197 50.4586 142.063 50.4586ZM142.314 61.1903H138.589V54.5693H142.314C144.38 54.5693 145.664 55.9186 145.664 57.8955C145.664 59.9351 144.38 61.1903 142.314 61.1903Z" fill="black"/>
<path d="M156.431 72.0786H161.345V50.4586H156.431V72.0786Z" fill="black"/>
<path d="M173.11 72.0786H178.025V55.04H183.972V50.4586H167.132V55.04H173.11V72.0786Z" fill="black"/>
<path d="M201.645 72.0786H206.778L196.887 50.49H194.571L184.679 72.0786H189.781L191.002 69.2547H200.424L201.645 72.0786ZM192.536 65.7089L195.604 58.5544H195.854L198.921 65.7089H192.536Z" fill="black"/>
<path d="M212.072 72.0786H225.343V67.4975H216.986V50.4586H212.072V72.0786Z" fill="black"/>
</svg>
