<svg width="247" height="101" viewBox="0 0 247 101" fill="none" xmlns="http://www.w3.org/2000/svg">
<g clip-path="url(#clip0_347_3436)">
<mask id="mask0_347_3436" style="mask-type:luminance" maskUnits="userSpaceOnUse" x="0" y="-1" width="247" height="102">
<path d="M247 -0.0020752H0V100.998H247V-0.0020752Z" fill="white"/>
</mask>
<g mask="url(#mask0_347_3436)">
<mask id="mask1_347_3436" style="mask-type:luminance" maskUnits="userSpaceOnUse" x="0" y="0" width="247" height="101">
<path d="M246.647 0.352295H0.353271V100.998H246.647V0.352295Z" fill="white"/>
</mask>
<g mask="url(#mask1_347_3436)">
<mask id="mask2_347_3436" style="mask-type:luminance" maskUnits="userSpaceOnUse" x="0" y="0" width="247" height="102">
<path d="M246.647 0.352295H0.353271V101.352H246.647V0.352295Z" fill="white"/>
</mask>
<g mask="url(#mask2_347_3436)">
<mask id="mask3_347_3436" style="mask-type:luminance" maskUnits="userSpaceOnUse" x="-123" y="0" width="370" height="102">
<path d="M246.647 0.352295H-122.97V101.352H246.647V0.352295Z" fill="white"/>
</mask>
<g mask="url(#mask3_347_3436)">
<path fill-rule="evenodd" clip-rule="evenodd" d="M25.4644 17.9833C30.6223 17.9833 35.7841 18.0256 40.9421 17.955C42.2953 17.9373 42.7898 18.2234 42.8076 19.7208C42.8781 25.8516 42.9384 25.8481 36.8016 25.8481C30.0253 25.8481 23.2454 25.8905 16.473 25.8234C14.4345 25.8234 13.1944 26.3531 13.2401 28.6486C13.2862 30.9442 13.8233 31.4351 16.4198 31.4422C23.5035 31.4422 30.5872 31.4422 37.6741 31.4422C41.3448 31.4422 42.737 32.8195 42.7437 36.4323C42.7437 43.1281 42.7437 49.8242 42.7437 56.52C42.7437 59.8502 41.292 61.3053 37.9425 61.3124C27.6972 61.3372 17.4515 61.3124 7.20621 61.3478C5.86363 61.3478 5.34426 61.0827 5.32299 59.5819C5.23116 53.4546 5.17125 53.4546 11.3467 53.4546C18.045 53.4546 24.7447 53.4546 31.4455 53.4546C34.3285 53.4546 34.8549 52.9425 34.8727 50.1595C34.8727 47.5427 34.8124 44.9224 34.8971 42.3088C34.968 40.1265 33.9821 39.2504 31.8553 39.261C24.694 39.2965 17.5327 39.261 10.3717 39.261C6.67265 39.261 5.37935 37.9651 5.36553 34.2745C5.36553 30.425 5.34426 26.5791 5.36553 22.7297C5.38644 19.403 6.8173 17.9938 10.1877 17.9797C15.2999 17.9691 20.3838 17.9833 25.4644 17.9833Z" fill="#472F8E"/>
<path fill-rule="evenodd" clip-rule="evenodd" d="M146.506 39.2752H137.974C136.84 39.2752 135.682 39.3457 135.639 40.8362C135.597 42.3264 136.734 42.4537 137.886 42.4537C143.419 42.4537 148.954 42.4537 154.491 42.4537C155.653 42.4537 156.812 42.3406 156.854 40.9174C156.897 39.4942 155.738 39.2752 154.579 39.2752H146.506ZM146.27 31.4138C150.813 31.4138 155.356 31.3927 159.9 31.4138C163.366 31.435 164.779 32.8724 164.797 36.3582C164.797 39.2823 164.797 42.2063 164.797 45.1307C164.797 48.9481 163.468 50.2973 159.706 50.3044C152.696 50.3044 145.69 50.2866 138.684 50.3256C137.487 50.3256 135.692 49.7781 135.682 51.8052C135.682 53.9524 137.536 53.4262 138.819 53.4403C142.977 53.4899 147.135 53.5077 151.29 53.4403C152.665 53.412 153.131 53.7937 153.156 55.231C153.262 61.3265 153.314 61.3265 147.298 61.3265C142.352 61.3265 137.441 61.3477 132.516 61.3265C129.131 61.3052 127.686 59.9139 127.669 56.594C127.622 49.8206 127.622 43.0494 127.669 36.2803C127.69 32.8088 129.121 31.4492 132.65 31.4315C137.186 31.3962 141.737 31.4138 146.27 31.4138Z" fill="#472F8E"/>
<path fill-rule="evenodd" clip-rule="evenodd" d="M64.9342 39.2752C62.1643 39.2752 59.397 39.2752 56.6317 39.2752C55.4518 39.2752 54.3638 39.5084 54.3954 40.9564C54.4237 42.2843 55.4554 42.4502 56.547 42.4502C62.1597 42.4502 67.7725 42.4502 73.3849 42.4502C74.5545 42.4502 75.6496 42.3052 75.6106 40.808C75.5755 39.4623 74.5226 39.2859 73.4661 39.2823C70.6399 39.2823 67.7782 39.2823 64.9342 39.2823V39.2752ZM78.6031 31.421C82.1363 31.421 83.514 32.8054 83.5494 36.2803C83.5657 39.3599 83.5657 42.4385 83.5494 45.5156C83.5246 48.9198 82.1856 50.2903 78.808 50.3009C71.5691 50.3222 64.323 50.3009 57.0947 50.3009C55.8581 50.3009 54.3532 50.128 54.4308 51.9537C54.4943 53.557 55.9109 53.4439 57.0663 53.4475C61.4542 53.4475 65.8457 53.4971 70.2336 53.4262C71.5514 53.4053 71.8977 53.8217 71.9261 55.1216C72.0707 61.3124 72.1133 61.3124 65.9588 61.3124C61.1082 61.3124 56.2538 61.3301 51.4032 61.3124C47.8701 61.2947 46.4817 59.8998 46.4747 56.4318C46.458 49.658 46.458 42.8857 46.4747 36.1145C46.4747 32.936 47.9339 31.4528 51.1238 31.421C55.7344 31.3821 74.0599 31.3962 78.6031 31.421Z" fill="#472F8E"/>
<path fill-rule="evenodd" clip-rule="evenodd" d="M209.407 17.9833C212.088 17.9833 214.307 18.0397 216.522 17.9585C217.561 17.9197 218.013 18.4847 218.511 19.2087C220.956 22.7544 223.418 26.286 225.899 29.8035C227.464 32.0178 228.566 32.0249 230.138 29.8247C232.541 26.4343 234.959 23.0581 237.242 19.5831C238.065 18.3364 238.958 17.8385 240.422 17.9409C242.333 18.0715 244.255 17.9727 246.584 17.9727C245.524 19.5265 244.655 20.8368 243.758 22.1293C241.61 25.2265 239.518 28.3555 237.267 31.3856C236.228 32.7983 236.14 34.0414 236.774 35.6518C239.759 43.2199 242.642 50.8378 245.556 58.4305C245.882 59.2782 246.158 60.1468 246.57 61.3053C244.017 61.3053 241.67 61.2734 239.327 61.3053C238.114 61.3301 238.065 60.3764 237.781 59.6418C235.597 53.9915 233.424 48.3291 231.258 42.655C230.675 41.1294 230.166 39.5399 228.079 39.5364C225.99 39.5329 225.439 41.0021 224.842 42.5774C222.701 48.249 220.475 53.8784 218.363 59.5784C217.897 60.8357 217.303 61.4502 215.89 61.3443C214.355 61.2153 212.811 61.2153 211.276 61.3443C209.548 61.4888 209.584 60.8251 210.096 59.5149C213.166 51.6465 216.144 43.7462 219.242 35.8884C219.949 34.1226 219.839 32.7771 218.692 31.2126C215.575 27.0065 212.675 22.6767 209.407 17.9833Z" fill="#472F8E"/>
<path fill-rule="evenodd" clip-rule="evenodd" d="M186.98 31.435C191.52 31.435 196.056 31.435 200.596 31.435C204.129 31.435 205.503 32.7876 205.514 36.298C205.531 43.9864 205.489 51.6744 205.549 59.3628C205.549 60.7967 205.266 61.3513 203.669 61.3584C197.635 61.3828 197.635 61.4466 197.635 55.4674C197.635 51.0107 197.582 46.5504 197.66 42.0933C197.691 40.1193 196.851 39.2681 194.932 39.2681C189.626 39.2681 184.318 39.2681 179.009 39.2681C177.056 39.2681 176.282 40.1544 176.3 42.0933C176.363 47.8605 176.275 53.6275 176.356 59.3983C176.377 60.8991 175.964 61.3478 174.434 61.3584C168.428 61.3899 168.428 61.4466 168.428 55.4359C168.428 49.0576 168.428 42.6762 168.428 36.2944C168.428 32.7912 169.799 31.4562 173.35 31.4386C177.9 31.4209 182.44 31.435 186.98 31.435Z" fill="#472F8E"/>
<path fill-rule="evenodd" clip-rule="evenodd" d="M124.072 31.4138C124.055 31.757 124.004 32.0976 123.92 32.4309C120.472 41.4649 117.019 50.4996 113.562 59.5358C113.081 60.8038 112.233 61.3265 110.93 61.3229C107.464 61.3229 104.002 61.3017 100.539 61.3229C99.3346 61.3229 98.4019 60.9416 97.9605 59.7867C94.3639 50.4103 90.785 41.0304 87.1001 31.3927C89.6651 31.3927 91.9542 31.4597 94.2366 31.3679C95.5685 31.3114 95.6497 32.272 95.9748 33.0913C98.2076 38.8938 100.447 44.6962 102.638 50.5127C103.21 52.0348 103.871 53.4368 105.747 53.4226C107.623 53.4084 108.255 51.943 108.821 50.4525C110.993 44.7068 113.23 38.9856 115.342 33.222C115.84 31.8623 116.483 31.2726 117.985 31.375C119.956 31.5198 121.952 31.4138 124.072 31.4138Z" fill="#472F8E"/>
<path fill-rule="evenodd" clip-rule="evenodd" d="M234.222 75.7248C237.675 75.7248 240.553 75.7248 243.432 75.7248C246.311 75.7248 246.584 76.0037 246.612 78.9033C246.637 83.5507 246.637 83.5507 241.925 83.5507C239.231 83.5507 236.537 83.5932 233.846 83.5507C232.786 83.5259 231.325 84.1794 231.293 82.0038C231.258 79.9098 232.577 80.3407 233.732 80.3336C236.203 80.3123 238.66 80.351 241.121 80.3088C241.83 80.3088 243.035 80.6618 243.074 79.7014C243.113 78.6701 241.908 79.0266 241.216 79.0164C238.745 78.9703 236.288 78.9419 233.828 79.0164C232.105 79.0656 231.332 78.4865 231.307 76.6324C231.233 71.1586 231.173 71.1617 236.608 71.1617C239.302 71.1617 242 71.2043 244.691 71.1408C245.967 71.1125 246.672 71.3138 246.655 72.8642C246.655 74.3158 246.134 74.7219 244.765 74.6794C242.149 74.5947 239.532 74.6333 236.916 74.6794C236.193 74.6617 235.377 74.3686 234.222 75.7248Z" fill="#9E9F9E"/>
<path fill-rule="evenodd" clip-rule="evenodd" d="M47.2376 75.7142C48.393 75.7142 49.5448 75.7142 50.6999 75.7142C51.0959 75.7142 51.5128 75.587 51.4986 75.1032C51.4844 74.6195 51.1097 74.4533 50.6967 74.4533C48.4671 74.4533 46.2343 74.432 44.0051 74.4533C43.5318 74.4533 43.0511 74.6439 43.1043 75.2375C43.1535 75.739 43.6378 75.7177 44.0086 75.7213C45.086 75.7213 46.1602 75.7213 47.2376 75.7213V75.7142ZM48.6511 78.9667C47.3436 78.9667 46.0365 78.9455 44.7294 78.9667C44.1675 78.9667 43.2702 78.769 43.3163 79.673C43.3691 80.5101 44.2455 80.2734 44.8177 80.2875C46.0471 80.3194 47.2908 80.3687 48.5061 80.2875C49.8309 80.1922 50.2337 80.7078 50.2195 82.0038C50.2195 83.2328 49.7675 83.6039 48.5873 83.5684C46.3616 83.4979 44.1288 83.533 41.8961 83.5684C40.3663 83.5684 39.6172 82.8621 39.6172 81.3294C39.6172 78.7158 39.6172 76.1026 39.6172 73.4858C39.6172 71.9846 40.306 71.1688 41.8287 71.1653C45.4466 71.1653 49.0609 71.1653 52.6749 71.1653C54.2717 71.1653 55.0208 71.9637 55.148 73.5528C55.572 78.4972 55.148 78.9845 50.2549 78.9845L48.6511 78.9667Z" fill="#9E9F9E"/>
<path fill-rule="evenodd" clip-rule="evenodd" d="M204.408 75.7C205.559 75.7 206.711 75.7 207.863 75.7C208.269 75.7 208.679 75.5377 208.619 75.0678C208.533 74.7886 208.309 74.5731 208.025 74.4994C205.647 74.4593 203.269 74.4593 200.892 74.4994C200.548 74.4831 200.255 74.7492 200.238 75.094C200.236 75.1504 200.241 75.2071 200.253 75.262C200.313 75.6402 200.652 75.7071 200.959 75.7107C202.111 75.7107 203.263 75.7107 204.415 75.7107L204.408 75.7ZM204.408 71.1444C206.174 71.1444 207.941 71.1444 209.707 71.1444C211.474 71.1444 212.265 71.9776 212.255 73.6836C212.255 73.7612 212.255 73.8388 212.255 73.9132C212.459 78.808 212.307 78.9668 207.46 78.9668C205.535 78.9668 203.613 78.9668 201.687 78.9668C201.168 78.9668 200.451 78.8856 200.412 79.6025C200.373 80.3195 201.097 80.284 201.617 80.3088C202.998 80.3301 204.39 80.3864 205.768 80.3088C207.022 80.2348 207.337 80.7819 207.33 81.9333C207.322 83.0847 207.082 83.6355 205.796 83.5933C203.493 83.5118 201.182 83.5685 198.872 83.5685C197.459 83.5685 196.752 82.8055 196.752 81.4213C196.731 78.73 196.731 76.0392 196.752 73.348C196.752 71.8153 197.617 71.148 199.105 71.1586C200.875 71.155 202.645 71.1444 204.415 71.1444H204.408Z" fill="#9E9F9E"/>
<path fill-rule="evenodd" clip-rule="evenodd" d="M81.85 71.1444C83.6166 71.1444 85.3832 71.1444 87.1494 71.1444C88.5203 71.1444 89.3613 71.7904 89.3754 73.2137C89.4034 76.2086 89.3471 79.2177 89.4034 82.2051C89.4318 83.639 88.5274 83.5188 87.5734 83.5649C86.4676 83.6177 85.8072 83.3636 85.8742 82.0641C85.9447 80.2982 85.8107 78.5323 85.9132 76.7667C86.0015 75.2057 85.4998 74.623 83.8428 74.5982C77.388 74.5029 77.3667 74.4462 77.3738 81.0856C77.3738 82.5868 77.4515 83.8544 75.2542 83.5968C74.1378 83.466 73.8127 83.0776 73.841 82.0428C73.8761 79.2776 73.841 76.5087 73.841 73.7435C73.841 71.9602 74.6323 71.0455 76.5223 71.1267C78.3137 71.2043 80.0838 71.1408 81.85 71.1444Z" fill="#9E9F9E"/>
<path fill-rule="evenodd" clip-rule="evenodd" d="M143.079 83.5508C141.313 83.5508 139.546 83.5154 137.78 83.5508C136.176 83.5933 135.307 82.9292 135.307 81.2728C135.307 78.3523 135.346 75.4318 135.286 72.5181C135.257 71.1055 136.102 71.1444 137.091 71.1055C138.151 71.0771 138.858 71.2504 138.819 72.5783C138.748 74.4959 138.843 76.4205 138.79 78.3381C138.755 79.6625 139.197 80.3581 140.634 80.3018C142.323 80.2348 144.016 80.2557 145.708 80.3018C146.899 80.3266 147.354 79.7578 147.337 78.6206C147.312 76.6995 147.39 74.7783 147.315 72.8607C147.266 71.5927 147.669 71.0562 149.011 71.0948C150.167 71.1338 150.905 71.254 150.859 72.7016C150.778 75.5271 150.834 78.3842 150.838 81.2271C150.838 82.8622 150.018 83.5862 148.389 83.5437C146.612 83.5154 144.846 83.5508 143.079 83.5508Z" fill="#9E9F9E"/>
<path fill-rule="evenodd" clip-rule="evenodd" d="M13.0708 83.4979C10.6367 84.2042 9.71455 82.9646 9.13881 80.8528C8.22734 77.5223 7.04359 74.2697 6.06866 70.964C5.87792 70.3251 4.825 69.2654 6.16403 68.9334C7.26978 68.6616 8.757 68.2448 9.2941 70.2014C10.0397 72.9348 11.0004 75.6153 11.9119 78.303C12.1203 78.9172 12.1101 79.8743 12.9719 79.924C13.9823 79.9839 14.0106 79.0128 14.2439 78.2924C15.06 75.7355 16.0101 73.2137 16.7167 70.6217C17.123 69.0925 17.9324 68.7041 19.3628 68.803C20.3945 68.877 20.7231 69.1276 20.3665 70.2156C19.0356 74.218 17.7484 78.2367 16.5047 82.2725C15.8584 84.2996 14.2156 83.2612 13.0708 83.4979Z" fill="#9E9F9E"/>
<path fill-rule="evenodd" clip-rule="evenodd" d="M111.445 83.5295C110.216 83.7272 109.778 83.1765 109.831 81.9897C109.898 80.3793 109.877 78.7655 109.831 77.1551C109.802 76.1487 110.206 75.0008 108.771 74.4356C108.11 74.1779 108.389 73.3409 108.389 72.7547C108.389 71.3421 110.294 68.8699 111.361 68.8345C112.226 68.8168 113.077 68.7498 113.145 70.0213C113.198 71.0491 113.996 71.2007 114.816 71.1338C116.088 71.0243 116.349 71.6845 116.356 72.8004C116.356 73.9731 116.176 74.7641 114.752 74.6475C113.385 74.538 113.074 75.3892 113.092 76.5477C113.12 78.3133 113.046 80.0792 113.113 81.8451C113.176 83.1021 112.795 83.7733 111.445 83.5295Z" fill="#9E9F9E"/>
<path fill-rule="evenodd" clip-rule="evenodd" d="M169.492 77.7873V73.4047C169.492 72.1579 170.015 71.2539 171.318 71.183C173.085 71.0912 174.851 71.1444 176.618 71.1586C177.978 71.1586 177.653 72.2178 177.678 73.0053C177.702 73.7931 177.77 74.5522 176.618 74.6439C175.466 74.7357 174.063 74.0968 173.325 75.0607C172.474 76.1802 173.085 77.7377 172.972 79.1011C172.913 79.9452 172.913 80.7925 172.972 81.6367C173.067 82.9185 172.791 83.6177 171.244 83.6003C169.796 83.6003 169.343 83.0847 169.442 81.7072C169.562 80.4077 169.488 79.094 169.492 77.7873Z" fill="#9E9F9E"/>
</g>
</g>
</g>
</g>
</g>
<defs>
<clipPath id="clip0_347_3436">
<rect width="247" height="101" fill="white" transform="translate(0 -0.0020752)"/>
</clipPath>
</defs>
</svg>
